<svg width="800" height="600" viewBox="0 0 800 600" xmlns="http://www.w3.org/2000/svg">
  <rect width="800" height="600" fill="#0B0B0D" />
  <g fill="none" stroke="#E0E0E0" stroke-width="8" stroke-linecap="round" stroke-linejoin="round">
    <path d="M410 120c-32 48-20 144 18 204 30 48 80 86 142 90 44 3 86-20 96-64 10-44-22-98-68-122-46-24-102-18-150-14" />
    <path d="M484 96c-24 58-10 150 34 210 28 40 74 72 126 74 40 2 78-20 84-58 6-38-22-84-60-106-52-28-126-20-184-12" opacity="0.4" />
  </g>
  <path d="M360 110c-78 112-24 264 70 342 68 58 176 78 248 14 80-70 42-206-56-258-118-62-260-18-262-98z" fill="#FFFFFF" opacity="0.08" />
</svg>
